<svg width="60" height="60" viewBox="0 0 60 60" fill="none" xmlns="http://www.w3.org/2000/svg">
<circle cx="30" cy="30" r="30" fill="#EBAC87" fill-opacity="0.6"/>
<path d="M37.124 42H22.3584V38.9385C23.3838 38.0596 24.4092 37.1807 25.4346 36.3018C26.4697 35.4229 27.4316 34.5488 28.3203 33.6797C30.1953 31.8633 31.4795 30.4229 32.1729 29.3584C32.8662 28.2842 33.2129 27.127 33.2129 25.8867C33.2129 24.7539 32.8369 23.8701 32.085 23.2354C31.3428 22.5908 30.3027 22.2686 28.9648 22.2686C28.0762 22.2686 27.1143 22.4248 26.0791 22.7373C25.0439 23.0498 24.0332 23.5283 23.0469 24.1729H22.9004V21.0967C23.5938 20.7549 24.5166 20.4424 25.6689 20.1592C26.8311 19.876 27.9541 19.7344 29.0381 19.7344C31.2744 19.7344 33.0273 20.2764 34.2969 21.3604C35.5664 22.4346 36.2012 23.8945 36.2012 25.7402C36.2012 26.5703 36.0938 27.3467 35.8789 28.0693C35.6738 28.7822 35.3662 29.4609 34.9561 30.1055C34.5752 30.7109 34.126 31.3066 33.6084 31.8926C33.1006 32.4785 32.4805 33.1279 31.748 33.8408C30.7031 34.8662 29.624 35.8623 28.5107 36.8291C27.3975 37.7861 26.3574 38.6748 25.3906 39.4951H37.124V42Z" fill="white"/>
</svg>
