<svg width="60" height="60" viewBox="0 0 60 60" fill="none" xmlns="http://www.w3.org/2000/svg">
<circle cx="30" cy="30" r="30" fill="#EBAC87"/>
<path d="M35.2051 31.4971C35.6738 31.917 36.0596 32.4443 36.3623 33.0791C36.665 33.7139 36.8164 34.5342 36.8164 35.54C36.8164 36.5361 36.6357 37.4492 36.2744 38.2793C35.9131 39.1094 35.4053 39.832 34.751 40.4473C34.0186 41.1309 33.1543 41.6387 32.1582 41.9707C31.1719 42.293 30.0879 42.4541 28.9062 42.4541C27.6953 42.4541 26.5039 42.3076 25.332 42.0146C24.1602 41.7314 23.1982 41.4189 22.4463 41.0771V38.0156H22.666C23.4961 38.5625 24.4727 39.0166 25.5957 39.3779C26.7188 39.7393 27.8027 39.9199 28.8477 39.9199C29.4629 39.9199 30.1172 39.8174 30.8105 39.6123C31.5039 39.4072 32.0654 39.1045 32.4951 38.7041C32.9443 38.2744 33.2764 37.8008 33.4912 37.2832C33.7158 36.7656 33.8281 36.1113 33.8281 35.3203C33.8281 34.5391 33.7012 33.8945 33.4473 33.3867C33.2031 32.8691 32.8613 32.4639 32.4219 32.1709C31.9824 31.8682 31.4502 31.6631 30.8252 31.5557C30.2002 31.4385 29.5264 31.3799 28.8037 31.3799H27.4854V28.9482H28.5107C29.9951 28.9482 31.1768 28.6406 32.0557 28.0254C32.9443 27.4004 33.3887 26.4922 33.3887 25.3008C33.3887 24.7734 33.2764 24.3145 33.0518 23.9238C32.8271 23.5234 32.5146 23.1963 32.1143 22.9424C31.6943 22.6885 31.2451 22.5127 30.7666 22.415C30.2881 22.3174 29.7461 22.2686 29.1406 22.2686C28.2129 22.2686 27.2266 22.4346 26.1816 22.7666C25.1367 23.0986 24.1504 23.5674 23.2227 24.1729H23.0762V21.1113C23.7695 20.7695 24.6924 20.457 25.8447 20.1738C27.0068 19.8809 28.1299 19.7344 29.2139 19.7344C30.2783 19.7344 31.2158 19.832 32.0264 20.0273C32.8369 20.2227 33.5693 20.5352 34.2236 20.9648C34.9268 21.4336 35.459 22 35.8203 22.6641C36.1816 23.3281 36.3623 24.1045 36.3623 24.9932C36.3623 26.2041 35.9326 27.2637 35.0732 28.1719C34.2236 29.0703 33.2178 29.6367 32.0557 29.8711V30.0762C32.5244 30.1543 33.0615 30.3203 33.667 30.5742C34.2725 30.8184 34.7852 31.126 35.2051 31.4971Z" fill="white"/>
</svg>
